<svg width="1600" height="900" viewBox="0 0 1600 900" xmlns="http://www.w3.org/2000/svg" preserveAspectRatio="xMidYMid slice">
  <defs>
    <!-- Base soft radial gradient -->
    <radialGradient id="bgRadial" cx="50%" cy="30%" r="80%">
      <stop offset="0%" stop-color="#ffffff"/>
      <stop offset="55%" stop-color="#eef2f7"/>
      <stop offset="100%" stop-color="#e6ecf4"/>
    </radialGradient>

    <!-- Accent radial glows -->
    <radialGradient id="glow1" cx="20%" cy="15%" r="40%">
      <stop offset="0%" stop-color="#ffffff" stop-opacity="0.9"/>
      <stop offset="100%" stop-color="#ffffff" stop-opacity="0"/>
    </radialGradient>
    <radialGradient id="glow2" cx="85%" cy="85%" r="50%">
      <stop offset="0%" stop-color="#f7fafc" stop-opacity="0.9"/>
      <stop offset="100%" stop-color="#f7fafc" stop-opacity="0"/>
    </radialGradient>

    <!-- Subtle diagonal line pattern -->
    <pattern id="diagLines" width="24" height="24" patternUnits="userSpaceOnUse" patternTransform="rotate(35)">
      <line x1="0" y1="0" x2="0" y2="24" stroke="#cfd8e6" stroke-opacity="0.18" stroke-width="1"/>
    </pattern>

    <!-- Wave gradients -->
    <linearGradient id="waveLight" x1="0" y1="0" x2="1" y2="0">
      <stop offset="0%" stop-color="#ffffff" stop-opacity="0.8"/>
      <stop offset="100%" stop-color="#e9eef6" stop-opacity="0.9"/>
    </linearGradient>
    <linearGradient id="waveDark" x1="0" y1="0" x2="1" y2="0">
      <stop offset="0%" stop-color="#e5ebf3" stop-opacity="0.9"/>
      <stop offset="100%" stop-color="#d8e1ed" stop-opacity="1"/>
    </linearGradient>
  </defs>

  <!-- Base background -->
  <rect width="1600" height="900" fill="url(#bgRadial)"/>

  <!-- Overlaid subtle pattern -->
  <rect width="1600" height="900" fill="url(#diagLines)" opacity="0.25"/>

  <!-- Soft radial glows -->
  <circle cx="0" cy="0" r="450" fill="url(#glow1)"/>
  <circle cx="1600" cy="900" r="520" fill="url(#glow2)"/>

  <!-- Layered waves at the top -->
  <g opacity="0.7">
    <path d="M0,70 C180,30 360,30 540,70 C720,110 900,110 1080,70 C1260,30 1440,30 1600,70 L1600,0 L0,0 Z" fill="url(#waveLight)"/>
  </g>
  <g opacity="0.6">
    <path d="M0,120 C200,80 400,85 600,120 C800,155 1000,155 1200,120 C1400,85 1500,85 1600,120 L1600,70 L0,70 Z" fill="url(#waveDark)"/>
  </g>

  <!-- Soft vignette at bottom -->
  <linearGradient id="vignette" x1="0" y1="1" x2="0" y2="0">
    <stop offset="0%" stop-color="#000000" stop-opacity="0.08"/>
    <stop offset="100%" stop-color="#000000" stop-opacity="0"/>
  </linearGradient>
  <rect y="740" width="1600" height="160" fill="url(#vignette)"/>
</svg>
